<svg xmlns="http://www.w3.org/2000/svg" width="512" height="512" viewBox="0 0 512 512">
  <rect width="512" height="512" fill="#C17817"/>
  <g transform="translate(256,256)">
    <path d="M-100 -42 C-100 -42 -50 -58 0 -42 C50 -58 100 -42 100 -42 L100 58 C100 58 50 42 0 58 C-50 42 -100 58 -100 58 Z" fill="none" stroke="#FFF8F0" stroke-width="10" stroke-linejoin="round"/>
    <line x1="0" y1="-42" x2="0" y2="58" stroke="#FFF8F0" stroke-width="6"/>
    <line x1="-75" y1="-21" x2="-16" y2="-30" stroke="#FFF8F0" stroke-width="4" opacity="0.6"/>
    <line x1="-75" y1="0" x2="-16" y2="-9" stroke="#FFF8F0" stroke-width="4" opacity="0.6"/>
    <line x1="-75" y1="21" x2="-16" y2="12" stroke="#FFF8F0" stroke-width="4" opacity="0.6"/>
    <line x1="16" y1="-30" x2="75" y2="-21" stroke="#FFF8F0" stroke-width="4" opacity="0.6"/>
    <line x1="16" y1="-9" x2="75" y2="0" stroke="#FFF8F0" stroke-width="4" opacity="0.6"/>
    <line x1="16" y1="12" x2="75" y2="21" stroke="#FFF8F0" stroke-width="4" opacity="0.6"/>
  </g>
</svg>