<svg xmlns="http://www.w3.org/2000/svg" width="192" height="192" viewBox="0 0 192 192">
  <rect width="192" height="192" rx="32" fill="#C17817"/>
  <g transform="translate(96,96)">
    <!-- Open book shape -->
    <path d="M-48 -20 C-48 -20 -24 -28 0 -20 C24 -28 48 -20 48 -20 L48 28 C48 28 24 20 0 28 C-24 20 -48 28 -48 28 Z" fill="none" stroke="#FFF8F0" stroke-width="5" stroke-linejoin="round"/>
    <!-- Center spine -->
    <line x1="0" y1="-20" x2="0" y2="28" stroke="#FFF8F0" stroke-width="3"/>
    <!-- Page lines left -->
    <line x1="-36" y1="-10" x2="-8" y2="-14" stroke="#FFF8F0" stroke-width="2" opacity="0.6"/>
    <line x1="-36" y1="0" x2="-8" y2="-4" stroke="#FFF8F0" stroke-width="2" opacity="0.6"/>
    <line x1="-36" y1="10" x2="-8" y2="6" stroke="#FFF8F0" stroke-width="2" opacity="0.6"/>
    <!-- Page lines right -->
    <line x1="8" y1="-14" x2="36" y2="-10" stroke="#FFF8F0" stroke-width="2" opacity="0.6"/>
    <line x1="8" y1="-4" x2="36" y2="0" stroke="#FFF8F0" stroke-width="2" opacity="0.6"/>
    <line x1="8" y1="6" x2="36" y2="10" stroke="#FFF8F0" stroke-width="2" opacity="0.6"/>
  </g>
</svg>