<svg xmlns="http://www.w3.org/2000/svg" width="512" height="512" viewBox="0 0 512 512">
  <rect width="512" height="512" rx="80" fill="#C17817"/>
  <g transform="translate(256,256)">
    <!-- Open book shape -->
    <path d="M-128 -54 C-128 -54 -64 -75 0 -54 C64 -75 128 -54 128 -54 L128 75 C128 75 64 54 0 75 C-64 54 -128 75 -128 75 Z" fill="none" stroke="#FFF8F0" stroke-width="12" stroke-linejoin="round"/>
    <!-- Center spine -->
    <line x1="0" y1="-54" x2="0" y2="75" stroke="#FFF8F0" stroke-width="7"/>
    <!-- Page lines left -->
    <line x1="-96" y1="-27" x2="-20" y2="-38" stroke="#FFF8F0" stroke-width="5" opacity="0.6"/>
    <line x1="-96" y1="0" x2="-20" y2="-11" stroke="#FFF8F0" stroke-width="5" opacity="0.6"/>
    <line x1="-96" y1="27" x2="-20" y2="16" stroke="#FFF8F0" stroke-width="5" opacity="0.6"/>
    <!-- Page lines right -->
    <line x1="20" y1="-38" x2="96" y2="-27" stroke="#FFF8F0" stroke-width="5" opacity="0.6"/>
    <line x1="20" y1="-11" x2="96" y2="0" stroke="#FFF8F0" stroke-width="5" opacity="0.6"/>
    <line x1="20" y1="16" x2="96" y2="27" stroke="#FFF8F0" stroke-width="5" opacity="0.6"/>
  </g>
</svg>